<svg id="Layer_1" data-name="Layer 1" xmlns="http://www.w3.org/2000/svg" viewBox="0 0 77.66 66.04">
  <defs>
    <style>
      .cls-1 {
        fill: #272525;
        stroke: #cc2229;
        stroke-width: 0.25px;
      }

      .cls-2 {
        fill: #e5a133;
        stroke: #e5a132;
        stroke-width: 0.5px;
      }
    </style>
  </defs>
  <path class="cls-1" d="M67.74,245" transform="translate(-145.25 -201.75)"/>
  <g>
    <path class="cls-2" d="M203.5,202v0a10.31,10.31,0,0,1,9.12,7.27v58.06c-9.7-2-19.29-20.08-24.77-27.47a13.71,13.71,0,0,0-7.45-5.21c-2.08-.54-4-.4-6.9-.18a33.15,33.15,0,0,0-5.8.94c-1.22.31-2.25.65-3,.93,9.84-2.61,28.19,27.78,28.19,27.78a6.33,6.33,0,0,0,4.65,3.35h16l-.57-.09.61.09V209.3a10.31,10.31,0,0,1,9.12-7.27v0Z" transform="translate(-145.25 -201.75)"/>
    <path class="cls-2" d="M155.54,260.2V209.3a10.34,10.34,0,0,1,5-6.05h18.22c7.91,0,14.33,6.83,14.33,15.26a15.79,15.79,0,0,1-4.2,10.8,14.78,14.78,0,0,1-2.87,2.37,15,15,0,0,1,4.58,3.85c6.51-2.7,11.94-8.86,11.94-16v-1c0-9.66-9.86-16.5-18.93-16.5H145.5v0a10.31,10.31,0,0,1,9.12,7.27v50.9a10.31,10.31,0,0,1-9.12,7.27v0h19.16v0A10.31,10.31,0,0,1,155.54,260.2Z" transform="translate(-145.25 -201.75)"/>
  </g>
</svg>
